999
DXF file generated by netDxf https://github.com/haplokuon/netDxf, Copyright(C) Daniel Carvajal, Licensed under MIT
0
SECTION
2
HEADER
9
$ACADVER
1
AC1015
9
$DWGCODEPAGE
3
ANSI_1252
9
$HANDSEED
5
53
9
$ANGBASE
50
0.0
9
$ANGDIR
70
0
9
$ATTMODE
70
1
9
$AUNITS
70
0
9
$AUPREC
70
0
9
$CECOLOR
62
256
9
$CELTSCALE
40
1.0
9
$CELTYPE
6
ByLayer
9
$CELWEIGHT
370
-1
9
$CLAYER
8
0
9
$CMLJUST
70
0
9
$CMLSCALE
40
20.0
9
$CMLSTYLE
2
Standard
9
$DIMSTYLE
2
Standard
9
$TEXTSIZE
40
2.5
9
$TEXTSTYLE
7
Standard
9
$LUNITS
70
2
9
$LUPREC
70
4
9
$MIRRTEXT
70
0
9
$EXTNAMES
290
1
9
$INSBASE
10
0.0
20
0.0
30
0.0
9
$INSUNITS
70
0
9
$LTSCALE
40
1.0
9
$LWDISPLAY
290
0
9
$PDMODE
70
0
9
$PDSIZE
40
0.0
9
$PLINEGEN
70
0
9
$PSLTSCALE
70
1
9
$SPLINESEGS
70
6
9
$SURFU
70
6
9
$SURFV
70
6
9
$TDCREATE
40
2460804.51666544
9
$TDUCREATE
40
2460804.39166544
9
$TDUPDATE
40
2460804.51666544
9
$TDUUPDATE
40
2460804.39166544
9
$TDINDWG
40
0.0
9
$UCSORG
10
0.0
20
0.0
30
0.0
9
$UCSXDIR
10
1.0
20
0.0
30
0.0
9
$UCSYDIR
10
0.0
20
1.0
30
0.0
9
$DIMADEC
70
0
9
$DIMALT
70
0
9
$DIMALTD
70
2
9
$DIMALTF
40
25.4
9
$DIMALTRND
40
0.0
9
$DIMALTTD
70
2
9
$DIMALTTZ
70
0
9
$DIMALTU
70
2
9
$DIMALTZ
70
0
9
$DIMAPOST
1

9
$DIMATFIT
70
3
9
$DIMAUNIT
70
0
9
$DIMASZ
40
0.18
9
$DIMAZIN
70
0
9
$DIMSAH
70
0
9
$DIMBLK
1

9
$DIMLDRBLK
1

9
$DIMCEN
40
0.09
9
$DIMCLRD
70
0
9
$DIMCLRE
70
0
9
$DIMCLRT
70
0
9
$DIMDEC
70
4
9
$DIMDLE
40
0.0
9
$DIMDLI
40
0.38
9
$DIMDSEP
70
46
9
$DIMEXE
40
0.18
9
$DIMEXO
40
0.0625
9
$DIMFXLON
70
0
9
$DIMFXL
40
1.0
9
$DIMGAP
40
0.09
9
$DIMJUST
70
0
9
$DIMLFAC
40
1.0
9
$DIMLUNIT
70
2
9
$DIMLWD
70
-2
9
$DIMLWE
70
-2
9
$DIMPOST
1

9
$DIMRND
40
0.0
9
$DIMSCALE
40
1.0
9
$DIMSD1
70
0
9
$DIMSD2
70
0
9
$DIMSE1
70
0
9
$DIMSE2
70
0
9
$DIMSOXD
70
0
9
$DIMTAD
70
0
9
$DIMTDEC
70
4
9
$DIMTFAC
40
1.0
9
$DIMTIH
70
0
9
$DIMTIX
70
0
9
$DIMTM
40
0.0
9
$DIMTMOVE
70
0
9
$DIMTOFL
70
0
9
$DIMTOH
70
0
9
$DIMTOL
70
0
9
$DIMLIM
70
0
9
$DIMTOLJ
70
1
9
$DIMTP
40
0.0
9
$DIMTXT
40
0.18
9
$DIMTXTDIRECTION
70
0
9
$DIMTZIN
70
0
9
$DIMZIN
70
0
9
$DIMFRAC
70
0
9
$DIMLTYPE
6
ByBlock
9
$DIMLTEX1
6
ByBlock
9
$DIMLTEX2
6
ByBlock
0
ENDSEC
0
SECTION
2
CLASSES
0
CLASS
1
RASTERVARIABLES
2
AcDbRasterVariables
3
ISM
90
0
280
0
281
0
0
ENDSEC
0
SECTION
2
TABLES
0
TABLE
2
APPID
5
4
330
0
100
AcDbSymbolTable
70
5
0
APPID
5
19
330
4
100
AcDbSymbolTableRecord
100
AcDbRegAppTableRecord
2
ACAD
70
0
0
APPID
5
26
330
4
100
AcDbSymbolTableRecord
100
AcDbRegAppTableRecord
2
AcAecLayerStandard
70
0
0
APPID
5
27
330
4
100
AcDbSymbolTableRecord
100
AcDbRegAppTableRecord
2
AcCmTransparency
70
0
0
APPID
5
4A
330
4
100
AcDbSymbolTableRecord
100
AcDbRegAppTableRecord
2
GradientColor1ACI
70
0
0
APPID
5
4B
330
4
100
AcDbSymbolTableRecord
100
AcDbRegAppTableRecord
2
GradientColor2ACI
70
0
0
ENDTAB
0
TABLE
2
VPORT
5
1
330
0
100
AcDbSymbolTable
70
1
0
VPORT
5
4E
330
1
100
AcDbSymbolTableRecord
100
AcDbViewportTableRecord
2
*Active
70
0
10
0.0
20
0.0
11
1.0
21
1.0
12
306818.256
22
323172.7635
13
0.0
23
0.0
14
0.5
24
0.5
15
10.0
25
10.0
16
0.0
26
0.0
36
1.0
17
306818.256
27
323172.7635
37
0.0
40
500.0
41
1.0
75
0
76
1
0
ENDTAB
0
TABLE
2
LTYPE
5
7
330
0
100
AcDbSymbolTable
70
3
0
LTYPE
5
15
330
7
100
AcDbSymbolTableRecord
100
AcDbLinetypeTableRecord
2
Continuous
70
0
3
Solid line
72
65
73
0
40
0.0
0
LTYPE
5
16
330
7
100
AcDbSymbolTableRecord
100
AcDbLinetypeTableRecord
2
ByLayer
70
0
3

72
65
73
0
40
0.0
0
LTYPE
5
17
330
7
100
AcDbSymbolTableRecord
100
AcDbLinetypeTableRecord
2
ByBlock
70
0
3

72
65
73
0
40
0.0
0
ENDTAB
0
TABLE
2
LAYER
5
5
102
{ACAD_XDICTIONARY
360
4F
102
}
330
0
100
AcDbSymbolTable
70
10
0
LAYER
5
14
330
5
100
AcDbSymbolTableRecord
100
AcDbLayerTableRecord
2
0
70
0
62
7
6
Continuous
290
1
370
-3
390
0
0
LAYER
5
23
330
5
100
AcDbSymbolTableRecord
100
AcDbLayerTableRecord
2
_PARCELA_NOU_feb2025
70
0
62
50
6
Continuous
290
1
370
-3
390
0
0
LAYER
5
25
330
5
100
AcDbSymbolTableRecord
100
AcDbLayerTableRecord
2
_ID
70
0
62
176
6
Continuous
290
1
370
30
390
0
1001
AcAecLayerStandard
1000

1000

1001
AcCmTransparency
1071
16777216
0
LAYER
5
2A
330
5
100
AcDbSymbolTableRecord
100
AcDbLayerTableRecord
2
_NR_PARCELA
70
0
62
50
6
Continuous
290
1
370
-3
390
0
1001
AcAecLayerStandard
1000

1000

1001
AcCmTransparency
1071
16777216
0
LAYER
5
2D
330
5
100
AcDbSymbolTableRecord
100
AcDbLayerTableRecord
2
_CAT_FOL
70
0
62
7
6
Continuous
290
1
370
-3
390
0
1001
AcAecLayerStandard
1000

1000

1001
AcCmTransparency
1071
16777216
0
LAYER
5
30
330
5
100
AcDbSymbolTableRecord
100
AcDbLayerTableRecord
2
_IMPREJMUIT
70
0
62
150
6
Continuous
290
1
370
-3
390
0
1001
AcAecLayerStandard
1000

1000

1001
AcCmTransparency
1071
16777216
0
LAYER
5
32
330
5
100
AcDbSymbolTableRecord
100
AcDbLayerTableRecord
2
_CLADIRE_DESTINATIE
70
0
62
50
6
Continuous
290
1
370
-3
390
0
1001
AcAecLayerStandard
1000

1000

1001
AcCmTransparency
1071
16777216
0
LAYER
5
37
330
5
100
AcDbSymbolTableRecord
100
AcDbLayerTableRecord
2
_CLADIRE_H
70
0
62
174
6
Continuous
290
1
370
-3
390
0
1001
AcAecLayerStandard
1000

1000

1001
AcCmTransparency
1071
16777216
0
LAYER
5
3C
330
5
100
AcDbSymbolTableRecord
100
AcDbLayerTableRecord
2
_CLADIRE_ID
70
0
62
30
6
Continuous
290
1
370
-3
390
0
1001
AcAecLayerStandard
1000

1000

1001
AcCmTransparency
1071
16777216
0
LAYER
5
41
330
5
100
AcDbSymbolTableRecord
100
AcDbLayerTableRecord
2
_CLADIRE
70
0
62
30
6
Continuous
290
1
370
-3
390
0
1001
AcAecLayerStandard
1000

1000

1001
AcCmTransparency
1071
16777216
0
ENDTAB
0
TABLE
2
STYLE
5
8
330
0
100
AcDbSymbolTable
70
2
0
STYLE
5
18
330
8
100
AcDbSymbolTableRecord
100
AcDbTextStyleTableRecord
2
Standard
3
simplex.shx
70
0
71
0
40
0.0
41
1.0
42
0.0
50
0.0
0
STYLE
5
29
330
8
100
AcDbSymbolTableRecord
100
AcDbTextStyleTableRecord
2
texte
3

70
0
71
0
40
0.0
41
1.0
42
0.0
50
0.0
1001
ACAD
1000
Calibri
1071
0
0
ENDTAB
0
TABLE
2
DIMSTYLE
5
A
330
0
100
AcDbSymbolTable
70
1
100
AcDbDimStyleTable
0
DIMSTYLE
105
1A
330
A
100
AcDbSymbolTableRecord
100
AcDbDimStyleTableRecord
2
Standard
3

4

40
1.0
41
0.18
42
0.0625
43
0.38
44
0.18
45
0.0
46
0.0
47
0.0
48
0.0
49
1.0
70
0
71
0
72
0
73
0
74
0
75
0
76
0
77
0
78
0
79
0
140
0.18
141
0.09
143
25.4
144
1.0
146
1.0
147
0.09
148
0.0
170
0
171
2
172
0
174
0
175
0
176
0
177
0
178
0
179
0
271
4
272
4
273
2
274
2
275
0
276
0
277
2
278
46
279
0
280
0
281
0
282
0
283
1
284
0
285
0
286
0
289
3
290
0
294
0
340
18
173
0
345
17
346
17
347
17
371
-2
372
-2
0
ENDTAB
0
TABLE
2
VIEW
5
3
330
0
100
AcDbSymbolTable
70
0
0
ENDTAB
0
TABLE
2
UCS
5
C
330
0
100
AcDbSymbolTable
70
0
0
ENDTAB
0
TABLE
2
BLOCK_RECORD
5
D
330
0
100
AcDbSymbolTable
70
2
0
BLOCK_RECORD
5
1C
330
D
100
AcDbSymbolTableRecord
100
AcDbBlockTableRecord
2
*Model_Space
340
20
0
BLOCK_RECORD
5
44
330
D
100
AcDbSymbolTableRecord
100
AcDbBlockTableRecord
2
*Paper_Space
340
49
0
ENDTAB
0
ENDSEC
0
SECTION
2
BLOCKS
0
BLOCK
5
1E
330
1C
100
AcDbEntity
67
0
8
0
100
AcDbBlockBegin
2
*Model_Space
70
0
10
0.0
20
0.0
30
0.0
3
*Model_Space
4

0
ENDBLK
5
1D
330
1C
100
AcDbEntity
8
0
100
AcDbBlockEnd
0
BLOCK
5
46
330
44
100
AcDbEntity
67
1
8
0
100
AcDbBlockBegin
2
*Paper_Space
70
0
10
0.0
20
0.0
30
0.0
3
*Paper_Space
4

0
ENDBLK
5
45
330
44
100
AcDbEntity
8
0
100
AcDbBlockEnd
0
ENDSEC
0
SECTION
2
ENTITIES
0
LWPOLYLINE
5
22
330
1C
100
AcDbEntity
67
0
8
_PARCELA_NOU_feb2025
62
256
6
ByLayer
370
-1
48
1.0
60
0
100
AcDbPolyline
90
12
70
1
38
0.0
39
0.0
10
613636.512
20
646345.527
40
0.0
41
0.0
42
0.0
10
613610.77
20
646323.507
40
0.0
41
0.0
42
0.0
10
613571.427
20
646291.238
40
0.0
41
0.0
42
0.0
10
613566.121
20
646294.15
40
0.0
41
0.0
42
0.0
10
613564.285
20
646298.461
40
0.0
41
0.0
42
0.0
10
613560.547
20
646306.356
40
0.0
41
0.0
42
0.0
10
613558.232
20
646311.493
40
0.0
41
0.0
42
0.0
10
613549.525
20
646324.001
40
0.0
41
0.0
42
0.0
10
613592.066
20
646354.334
40
0.0
41
0.0
42
0.0
10
613607.546
20
646365.406
40
0.0
41
0.0
42
0.0
10
613668.595
20
646409.169
40
0.0
41
0.0
42
0.0
10
613682.122
20
646381.316
40
0.0
41
0.0
42
0.0
210
0.0
220
0.0
230
1.0
0
TEXT
5
24
330
1C
100
AcDbEntity
67
0
8
_ID
62
40
420
-1023879375
6
ByLayer
370
-1
48
1.0
60
0
100
AcDbText
1
400
10
613578.728012724
20
646332.568289531
30
0.0
40
4.0
41
1.0
50
0.0
51
0.0
7
Standard
11
613578.728012724
21
646332.568289531
31
0.0
210
0.0
220
0.0
230
1.0
71
0
72
0
100
AcDbText
73
0
0
TEXT
5
28
330
1C
100
AcDbEntity
67
0
8
_NR_PARCELA
62
256
6
ByLayer
370
-1
48
1.0
60
0
100
AcDbText
1
1
10
613573.315374126
20
646309.626879808
30
0.0
40
1.0
41
1.0
50
0.0
51
0.0
7
texte
11
613573.315374126
21
646309.626879808
31
0.0
210
0.0
220
0.0
230
1.0
71
0
72
0
100
AcDbText
73
0
0
TEXT
5
2B
330
1C
100
AcDbEntity
67
0
8
_NR_PARCELA
62
256
6
ByLayer
370
-1
48
1.0
60
0
100
AcDbText
1
2
10
613605.015370858
20
646342.320109603
30
0.0
40
1.0
41
1.0
50
0.0
51
0.0
7
texte
11
613605.015370858
21
646342.320109603
31
0.0
210
0.0
220
0.0
230
1.0
71
0
72
0
100
AcDbText
73
0
0
TEXT
5
2C
330
1C
100
AcDbEntity
67
0
8
_CAT_FOL
62
256
6
ByLayer
370
-1
48
1.0
60
0
100
AcDbText
1
CC
10
613574.143584989
20
646309.629672009
30
0.0
40
1.0
41
1.0
50
0.0
51
0.0
7
texte
11
613574.143584989
21
646309.629672009
31
0.0
210
0.0
220
0.0
230
1.0
71
0
72
0
100
AcDbText
73
0
0
TEXT
5
2E
330
1C
100
AcDbEntity
67
0
8
_CAT_FOL
62
256
6
ByLayer
370
-1
48
1.0
60
0
100
AcDbText
1
A
10
613605.843581721
20
646342.322901804
30
0.0
40
1.0
41
1.0
50
0.0
51
0.0
7
texte
11
613605.843581721
21
646342.322901804
31
0.0
210
0.0
220
0.0
230
1.0
71
0
72
0
100
AcDbText
73
0
0
TEXT
5
2F
330
1C
100
AcDbEntity
67
0
8
_IMPREJMUIT
62
256
6
ByLayer
370
-1
48
1.0
60
0
100
AcDbText
1
I
10
613576.463811308
20
646309.829221733
30
0.0
40
1.0
41
1.0
50
0.0
51
0.0
7
texte
11
613576.463811308
21
646309.829221733
31
0.0
210
0.0
220
0.0
230
1.0
71
0
72
0
100
AcDbText
73
0
0
TEXT
5
31
330
1C
100
AcDbEntity
67
0
8
_CLADIRE_DESTINATIE
62
256
6
ByLayer
370
-1
48
1.0
60
0
100
AcDbText
1
CA
10
613576.013073775
20
646300.538088782
30
0.0
40
1.0
41
1.0
50
0.0
51
0.0
7
texte
11
613576.013073775
21
646300.538088782
31
0.0
210
0.0
220
0.0
230
1.0
71
0
72
0
100
AcDbText
73
0
0
TEXT
5
33
330
1C
100
AcDbEntity
67
0
8
_CLADIRE_DESTINATIE
62
256
6
ByLayer
370
-1
48
1.0
60
0
100
AcDbText
1
CA
10
613563.288045164
20
646304.069716445
30
0.0
40
1.0
41
1.0
50
0.0
51
0.0
7
texte
11
613563.288045164
21
646304.069716445
31
0.0
210
0.0
220
0.0
230
1.0
71
0
72
0
100
AcDbText
73
0
0
TEXT
5
34
330
1C
100
AcDbEntity
67
0
8
_CLADIRE_DESTINATIE
62
256
6
ByLayer
370
-1
48
1.0
60
0
100
AcDbText
1
CA
10
613563.286696012
20
646313.229995213
30
0.0
40
1.0
41
1.0
50
0.0
51
0.0
7
texte
11
613563.286696012
21
646313.229995213
31
0.0
210
0.0
220
0.0
230
1.0
71
0
72
0
100
AcDbText
73
0
0
TEXT
5
35
330
1C
100
AcDbEntity
67
0
8
_CLADIRE_DESTINATIE
62
256
6
ByLayer
370
-1
48
1.0
60
0
100
AcDbText
1
CL
10
613573.208814865
20
646321.429154173
30
0.0
40
1.0
41
1.0
50
0.0
51
0.0
7
texte
11
613573.208814865
21
646321.429154173
31
0.0
210
0.0
220
0.0
230
1.0
71
0
72
0
100
AcDbText
73
0
0
TEXT
5
36
330
1C
100
AcDbEntity
67
0
8
_CLADIRE_H
62
256
6
ByLayer
370
-1
48
1.0
60
0
100
AcDbText
1
1
10
613576.578098936
20
646298.229029994
30
0.0
40
1.0
41
1.0
50
0.0
51
0.0
7
texte
11
613576.578098936
21
646298.229029994
31
0.0
210
0.0
220
0.0
230
1.0
71
0
72
0
100
AcDbText
73
0
0
TEXT
5
38
330
1C
100
AcDbEntity
67
0
8
_CLADIRE_H
62
256
6
ByLayer
370
-1
48
1.0
60
0
100
AcDbText
1
1
10
613563.853070325
20
646301.760657657
30
0.0
40
1.0
41
1.0
50
0.0
51
0.0
7
texte
11
613563.853070325
21
646301.760657657
31
0.0
210
0.0
220
0.0
230
1.0
71
0
72
0
100
AcDbText
73
0
0
TEXT
5
39
330
1C
100
AcDbEntity
67
0
8
_CLADIRE_H
62
256
6
ByLayer
370
-1
48
1.0
60
0
100
AcDbText
1
1
10
613563.851721172
20
646310.920936425
30
0.0
40
1.0
41
1.0
50
0.0
51
0.0
7
texte
11
613563.851721172
21
646310.920936425
31
0.0
210
0.0
220
0.0
230
1.0
71
0
72
0
100
AcDbText
73
0
0
TEXT
5
3A
330
1C
100
AcDbEntity
67
0
8
_CLADIRE_H
62
256
6
ByLayer
370
-1
48
1.0
60
0
100
AcDbText
1
1
10
613573.773840026
20
646319.120095384
30
0.0
40
1.0
41
1.0
50
0.0
51
0.0
7
texte
11
613573.773840026
21
646319.120095384
31
0.0
210
0.0
220
0.0
230
1.0
71
0
72
0
100
AcDbText
73
0
0
TEXT
5
3B
330
1C
100
AcDbEntity
67
0
8
_CLADIRE_ID
62
256
6
ByLayer
370
-1
48
1.0
60
0
100
AcDbText
1
C2
10
613576.342356983
20
646299.428039386
30
0.0
40
1.0
41
1.0
50
0.0
51
0.0
7
texte
11
613576.342356983
21
646299.428039386
31
0.0
210
0.0
220
0.0
230
1.0
71
0
72
0
100
AcDbText
73
0
0
TEXT
5
3D
330
1C
100
AcDbEntity
67
0
8
_CLADIRE_ID
62
256
6
ByLayer
370
-1
48
1.0
60
0
100
AcDbText
1
C4
10
613563.617328373
20
646302.959667049
30
0.0
40
1.0
41
1.0
50
0.0
51
0.0
7
texte
11
613563.617328373
21
646302.959667049
31
0.0
210
0.0
220
0.0
230
1.0
71
0
72
0
100
AcDbText
73
0
0
TEXT
5
3E
330
1C
100
AcDbEntity
67
0
8
_CLADIRE_ID
62
256
6
ByLayer
370
-1
48
1.0
60
0
100
AcDbText
1
C3
10
613563.61597922
20
646312.119945817
30
0.0
40
1.0
41
1.0
50
0.0
51
0.0
7
texte
11
613563.61597922
21
646312.119945817
31
0.0
210
0.0
220
0.0
230
1.0
71
0
72
0
100
AcDbText
73
0
0
TEXT
5
3F
330
1C
100
AcDbEntity
67
0
8
_CLADIRE_ID
62
256
6
ByLayer
370
-1
48
1.0
60
0
100
AcDbText
1
C1
10
613573.538098073
20
646320.319104776
30
0.0
40
1.0
41
1.0
50
0.0
51
0.0
7
texte
11
613573.538098073
21
646320.319104776
31
0.0
210
0.0
220
0.0
230
1.0
71
0
72
0
100
AcDbText
73
0
0
LWPOLYLINE
5
40
330
1C
100
AcDbEntity
67
0
8
_CLADIRE
62
256
6
ByLayer
370
-1
48
1.0
60
0
100
AcDbPolyline
90
4
70
1
38
0.0
39
0.0
10
613576.442198181
20
646302.857036234
40
0.0
41
0.0
42
0.0
10
613573.471
20
646300.869
40
0.0
41
0.0
42
0.0
10
613576.401
20
646296.49
40
0.0
41
0.0
42
0.0
10
613579.372198181
20
646298.478036234
40
0.0
41
0.0
42
0.0
210
0.0
220
0.0
230
1.0
0
LWPOLYLINE
5
42
330
1C
100
AcDbEntity
67
0
8
_CLADIRE
62
256
6
ByLayer
370
-1
48
1.0
60
0
100
AcDbPolyline
90
9
70
1
38
0.0
39
0.0
10
613576.410985719
20
646322.642919353
40
0.0
41
0.0
42
0.0
10
613574.33
20
646325.096
40
0.0
41
0.0
42
0.0
10
613565.575
20
646317.669
40
0.0
41
0.0
42
0.0
10
613566.288054786
20
646316.414856766
40
0.0
41
0.0
42
0.0
10
613568.519
20
646312.491
40
0.0
41
0.0
42
0.0
10
613575.144678611
20
646318.111664197
40
0.0
41
0.0
42
0.0
10
613580.331
20
646313.455
40
0.0
41
0.0
42
0.0
10
613584.428
20
646318.018
40
0.0
41
0.0
42
0.0
10
613578.151
20
646324.119
40
0.0
41
0.0
42
0.0
210
0.0
220
0.0
230
1.0
0
LWPOLYLINE
5
43
330
1C
100
AcDbEntity
67
0
8
_CLADIRE
62
256
6
ByLayer
370
-1
48
1.0
60
0
100
AcDbPolyline
90
4
70
1
38
0.0
39
0.0
10
613566.288054786
20
646316.414856766
40
0.0
41
0.0
42
0.0
10
613559.048
20
646311.935
40
0.0
41
0.0
42
0.0
10
613561.067
20
646307.88
40
0.0
41
0.0
42
0.0
10
613568.519
20
646312.491
40
0.0
41
0.0
42
0.0
210
0.0
220
0.0
230
1.0
0
VIEWPORT
5
48
330
44
100
AcDbEntity
67
1
8
0
62
256
6
ByLayer
370
-1
48
1.0
60
0
100
AcDbViewport
10
0.0
20
0.0
30
0.0
40
297.0
41
210.0
68
1
69
1
12
50.0
22
100.0
13
0.0
23
0.0
14
10.0
24
10.0
15
10.0
25
10.0
16
0.0
26
0.0
36
1.0
17
0.0
27
0.0
37
0.0
42
50.0
43
0.0
44
0.0
45
250.0
50
0.0
51
0.0
72
1000
90
819232
110
0.0
120
0.0
130
0.0
111
1.0
121
0.0
131
0.0
112
0.0
122
1.0
132
0.0
0
ENDSEC
0
SECTION
2
OBJECTS
0
DICTIONARY
5
51
330
0
100
AcDbDictionary
280
1
281
1
3
ACAD_GROUP
350
12
3
ACAD_LAYOUT
350
47
3
ACAD_DGNDEFINITIONS
350
F
3
ACAD_DWFDEFINITIONS
350
10
3
ACAD_PDFDEFINITIONS
350
11
3
ACAD_MLINESTYLE
350
B
3
ACAD_IMAGE_DICT
350
E
3
ACAD_IMAGE_VARS
350
21
0
DICTIONARY
5
12
330
51
100
AcDbDictionary
280
1
281
1
0
DICTIONARY
5
47
330
51
100
AcDbDictionary
280
1
281
1
3
Model
350
20
3
Layout1
350
49
0
DICTIONARY
5
F
330
51
100
AcDbDictionary
280
1
281
1
0
DICTIONARY
5
10
330
51
100
AcDbDictionary
280
1
281
1
0
DICTIONARY
5
11
330
51
100
AcDbDictionary
280
1
281
1
0
DICTIONARY
5
B
330
51
100
AcDbDictionary
280
1
281
1
3
Standard
350
1B
0
DICTIONARY
5
E
330
51
100
AcDbDictionary
280
1
281
1
0
DICTIONARY
5
4F
330
5
100
AcDbDictionary
280
1
281
1
3
ACAD_LAYERSTATES
360
52
0
DICTIONARY
5
52
330
4F
100
AcDbDictionary
280
1
281
1
0
LAYOUT
5
20
330
47
100
AcDbPlotSettings
1

2
none_device
4
ISO_A4_(210.00_x_297.00_MM)
6

40
7.5
41
20.0
42
7.5
43
20.0
44
210.0
45
297.0
46
0.0
47
0.0
48
0.0
49
0.0
140
0.0
141
0.0
142
1.0
143
1.0
70
11952
72
1
73
1
74
1
7

75
0
76
0
77
2
78
300
147
1.0
148
0.0
149
0.0
100
AcDbLayout
1
Model
71
1
10
-20.0
20
-7.5
11
277.0
21
202.5
12
0.0
22
0.0
32
0.0
14
25.7
24
19.5
34
0.0
15
231.3
25
175.5
35
0.0
146
0.0
13
0.0
23
0.0
33
0.0
16
1.0
26
0.0
36
0.0
17
0.0
27
1.0
37
0.0
76
0
330
1C
0
LAYOUT
5
49
330
47
100
AcDbPlotSettings
1

2
none_device
4
ISO_A4_(210.00_x_297.00_MM)
6

40
7.5
41
20.0
42
7.5
43
20.0
44
210.0
45
297.0
46
0.0
47
0.0
48
0.0
49
0.0
140
0.0
141
0.0
142
1.0
143
1.0
70
688
72
1
73
1
74
1
7

75
0
76
0
77
2
78
300
147
1.0
148
0.0
149
0.0
100
AcDbLayout
1
Layout1
71
1
10
-20.0
20
-7.5
11
277.0
21
202.5
12
0.0
22
0.0
32
0.0
14
25.7
24
19.5
34
0.0
15
231.3
25
175.5
35
0.0
146
0.0
13
0.0
23
0.0
33
0.0
16
1.0
26
0.0
36
0.0
17
0.0
27
1.0
37
0.0
76
0
330
44
0
MLINESTYLE
5
1B
330
B
100
AcDbMlineStyle
2
Standard
70
0
3

62
256
51
90.0
52
90.0
71
2
49
0.5
62
256
6
ByLayer
49
-0.5
62
256
6
ByLayer
0
RASTERVARIABLES
5
21
330
E
100
AcDbRasterVariables
90
0
70
1
71
1
72
0
0
ENDSEC
0
EOF
